<?xml version="1.0" encoding="utf-8"?>
<!-- Generator: Adobe Illustrator 27.9.0, SVG Export Plug-In . SVG Version: 6.00 Build 0)  -->
<svg version="1.1" id="圖層_1" xmlns="http://www.w3.org/2000/svg" xmlns:xlink="http://www.w3.org/1999/xlink" x="0px" y="0px"
	 viewBox="0 0 100 100" style="enable-background:new 0 0 100 100;" xml:space="preserve">
<g id="圖層_2_1_">
</g>
<g>
	<path d="M44.6,0.5C27,2.4,11.3,14,4.1,30.4C-0.5,41-1.3,53.2,2,64.4c4,14,14.5,25.8,28,31.8c10.6,4.6,22.8,5.4,34,2.1
		c16.8-4.8,30.1-18.7,34.4-35.8c6.8-26.9-9.9-54.4-36.8-60.8C55.8,0.3,50.5-0.1,44.6,0.5z M45.3,31.6c4.3,5.7,7.9,10.4,8,10.4
		s4.6-4.7,9.8-10.4l9.6-10.4h5.4L77,22.4c-0.7,0.7-5,5.4-9.7,10.5c-4.6,5-9.2,10-10.1,10.9l-1.6,1.7l12.5,16.7
		c6.9,9.2,12.5,16.8,12.5,17c0,0.2-4.1,0.3-9.1,0.3l-9.1,0L54,68c-5.9-7.9-8.6-11.2-8.9-11c-0.2,0.2-4.9,5.3-10.6,11.4L24.4,79.4
		h-2.6c-1.4,0-2.6-0.1-2.6-0.2c0-0.1,5.3-5.9,11.8-12.9c6.5-7,11.8-12.8,11.9-12.9c0-0.1-5.3-7.4-11.8-16.1
		c-6.5-8.7-11.9-15.9-11.9-15.9c0-0.1,4.1-0.1,9.2-0.1h9.2L45.3,31.6z"/>
	<path d="M27.5,25.7c0.1,0.2,8.6,11.5,18.7,25l18.4,24.6l4.1,0c2.5,0,4.1-0.1,4-0.3c0-0.2-8.4-11.5-18.6-25.1L35.5,25.2h-4.1
		C27.9,25.2,27.2,25.3,27.5,25.7L27.5,25.7z"/>
</g>
</svg>
