<?xml version="1.0" encoding="utf-8"?>
<!-- Generator: Adobe Illustrator 27.9.0, SVG Export Plug-In . SVG Version: 6.00 Build 0)  -->
<svg version="1.1" id="圖層_1" xmlns="http://www.w3.org/2000/svg" xmlns:xlink="http://www.w3.org/1999/xlink" x="0px" y="0px"
	 viewBox="0 0 30 30" style="enable-background:new 0 0 30 30;" xml:space="preserve">
<style type="text/css">
	.st0{fill:none;}
	.st1{fill:#F28111;}
</style>
<rect class="st0" width="30" height="30"/>
<g>
	<path class="st1" d="M8.3,13.4L15,6.7l7.2,7.2l6.7,6.7c0.7-1.8,1.1-3.7,1.1-5.6c0-3.3-1.1-6.5-3.1-9.1S22.2,1.5,19,0.6
		c-3.2-0.9-6.5-0.7-9.5,0.5c-3,1.2-5.6,3.4-7.3,6.2L8.3,13.4z"/>
	<path class="st1" d="M21.7,16.6L15,23.3l-7.1-7L1.1,9.5c-1.3,3.5-1.3,7.3,0.1,10.8c1.4,3.5,4,6.3,7.3,7.9c3.3,1.6,7.1,2,10.7,1
		c3.6-1,6.6-3.3,8.6-6.4L21.7,16.6z"/>
</g>
</svg>
