<?xml version="1.0" encoding="utf-8"?>
<!-- Generator: Adobe Illustrator 27.9.0, SVG Export Plug-In . SVG Version: 6.00 Build 0)  -->
<svg version="1.1" id="圖層_1" xmlns="http://www.w3.org/2000/svg" xmlns:xlink="http://www.w3.org/1999/xlink" x="0px" y="0px"
	 viewBox="0 0 40 40" style="enable-background:new 0 0 40 40;" xml:space="preserve">
<style type="text/css">
	.st0{fill:#FFFFFF;}
</style>
<path class="st0" d="M26.9,6.4c-0.5-0.6-1.4-0.7-2-0.2s-0.7,1.4-0.2,2c0.1,0.1,0.1,0.1,0.2,0.2l10.2,10.2H1.4
	c-0.8,0-1.4,0.7-1.3,1.5c0,0.7,0.6,1.3,1.3,1.3h33.8L24.9,31.7c-0.5,0.6-0.5,1.4,0,2c0.6,0.6,1.4,0.6,2,0l0,0L39.6,21
	c0.6-0.5,0.6-1.4,0-2l0,0L26.9,6.4z"/>
</svg>
