<svg width="28" height="28" viewBox="0 0 28 28" fill="none" xmlns="http://www.w3.org/2000/svg">
<path d="M24.6608 23.5612L19.0149 17.9152C20.2527 16.431 20.9998 14.5239 20.9998 12.4445C20.9998 7.72686 17.1618 3.88892 12.4442 3.88892C7.72662 3.88892 3.88867 7.72686 3.88867 12.4445C3.88867 17.1621 7.72662 21 12.4442 21C14.5236 21 16.4307 20.253 17.9149 19.0151L23.561 24.6612C23.7129 24.8131 23.912 24.8891 24.1109 24.8891C24.3098 24.8891 24.5089 24.8131 24.6608 24.6612C24.9647 24.3573 24.9647 23.865 24.6608 23.5612V23.5612ZM5.44423 12.4445C5.44423 8.58475 8.58412 5.44447 12.4442 5.44447C16.3043 5.44447 19.4442 8.58475 19.4442 12.4445C19.4442 16.3042 16.3043 19.4445 12.4442 19.4445C8.58412 19.4445 5.44423 16.3042 5.44423 12.4445Z" fill="black"/>
</svg>
