<?xml version="1.0" encoding="utf-8"?>
<!-- Generator: Adobe Illustrator 27.9.0, SVG Export Plug-In . SVG Version: 6.00 Build 0)  -->
<svg version="1.1" xmlns="http://www.w3.org/2000/svg" xmlns:xlink="http://www.w3.org/1999/xlink" x="0px" y="0px"
	 viewBox="0 0 24 24" style="enable-background:new 0 0 24 24;" xml:space="preserve">
<style type="text/css">
	.st0{fill:#040000;}
	.st1{display:none;}
	.st2{display:inline;}
</style>
<g id="圖層_1">
	<g>
		<path class="st0" d="M6.5,22h11c2.5,0,4.5-2,4.5-4.5v-4.9c0-0.5-0.4-0.9-0.9-0.9c-0.5,0-0.9,0.4-0.9,0.9v4.9
			c0,1.5-1.2,2.7-2.7,2.7h-11c-1.5,0-2.7-1.2-2.7-2.7v-11C3.8,5,5,3.8,6.5,3.8h4.9c0.5,0,0.9-0.4,0.9-0.9S11.9,2,11.4,2H6.5
			C4,2,2,4,2,6.5v11C2,20,4,22,6.5,22z"/>
		<path class="st0" d="M16.3,3.4L8,11.8c-0.2,0.2-0.3,0.4-0.3,0.6v3c0,0.5,0.4,0.9,0.9,0.9h3c0.2,0,0.5-0.1,0.6-0.3l8.4-8.4
			c1.2-1.2,1.2-3.1,0-4.3C19.4,2.2,17.5,2.2,16.3,3.4z M11.2,14.5H9.5v-1.7L16.2,6L18,7.7L11.2,14.5z M19.3,6.4L19.3,6.4l-1.8-1.7
			l0.1-0.1c0.5-0.5,1.2-0.5,1.7,0C19.8,5.2,19.8,5.9,19.3,6.4z"/>
	</g>
</g>
<g id="圖層_2" class="st1">
	<g class="st2">
		<path class="st0" d="M4.5,19.9c0,1.8,1.5,3.3,3.3,3.3h8.3c1.8,0,3.3-1.5,3.3-3.3V6.6h1.7c0.5,0,0.8-0.4,0.8-0.8
			c0-0.5-0.4-0.8-0.8-0.8h-4.2c-0.5-2.7-3.1-4.5-5.8-4.1c-2.1,0.4-3.7,2-4.1,4.1H2.8C2.4,4.9,2,5.3,2,5.7c0,0.5,0.4,0.8,0.8,0.8h1.7
			V19.9z M12,2.4c1.5,0,2.8,1,3.2,2.5H8.8C9.2,3.4,10.5,2.4,12,2.4z M7.8,6.6h10v13.3c0,0.9-0.7,1.7-1.7,1.7H7.8
			c-0.9,0-1.7-0.7-1.7-1.7V6.6H7.8z M8.7,18.2V9.9c0-0.5,0.4-0.8,0.8-0.8s0.8,0.4,0.8,0.8v8.3c0,0.5-0.4,0.8-0.8,0.8
			S8.7,18.7,8.7,18.2z M13.7,18.2V9.9c0-0.5,0.4-0.8,0.8-0.8s0.8,0.4,0.8,0.8v8.3c0,0.5-0.4,0.8-0.8,0.8S13.7,18.7,13.7,18.2z"/>
	</g>
</g>
</svg>
